<?xml version="1.0" encoding="utf-8"?>
<!-- Generator: Adobe Illustrator 27.9.0, SVG Export Plug-In . SVG Version: 6.00 Build 0)  -->
<svg version="1.1"
	 id="svg2" xmlns:inkscape="http://www.inkscape.org/namespaces/inkscape" xmlns:sodipodi="http://sodipodi.sourceforge.net/DTD/sodipodi-0.dtd" xmlns:rdf="http://www.w3.org/1999/02/22-rdf-syntax-ns#" xmlns:dc="http://purl.org/dc/elements/1.1/" xmlns:svg="http://www.w3.org/2000/svg" xmlns:cc="http://creativecommons.org/ns#"
	 xmlns="http://www.w3.org/2000/svg" xmlns:xlink="http://www.w3.org/1999/xlink" x="0px" y="0px" viewBox="0 0 510.2 439.4"
	 style="enable-background:new 0 0 510.2 439.4;" xml:space="preserve">
<style type="text/css">
	.st0{fill:#323230;}
	.st1{fill:#FEFEFE;}
</style>
<defs>
	<inkscape:path-effect  effect="spiro" id="path-effect3414" is_visible="true" lpeversion="0"></inkscape:path-effect>
	<inkscape:path-effect  effect="spiro" id="path-effect3410" is_visible="true" lpeversion="0"></inkscape:path-effect>
	<inkscape:path-effect  effect="spiro" id="path-effect3406" is_visible="true" lpeversion="0"></inkscape:path-effect>
	<inkscape:path-effect  effect="spiro" id="path-effect3402" is_visible="true" lpeversion="0"></inkscape:path-effect>
	<inkscape:path-effect  effect="spiro" id="path-effect3398" is_visible="true" lpeversion="0"></inkscape:path-effect>
	<inkscape:path-effect  effect="spiro" id="path-effect3392" is_visible="true" lpeversion="0"></inkscape:path-effect>
	<inkscape:path-effect  effect="spiro" id="path-effect3388" is_visible="true" lpeversion="0"></inkscape:path-effect>
	<inkscape:path-effect  effect="spiro" id="path-effect3372" is_visible="true" lpeversion="0"></inkscape:path-effect>
	<inkscape:path-effect  effect="spiro" id="path-effect3368" is_visible="true" lpeversion="0"></inkscape:path-effect>
	<inkscape:path-effect  effect="spiro" id="path-effect3364" is_visible="true" lpeversion="0"></inkscape:path-effect>
	<inkscape:path-effect  effect="spiro" id="path-effect3360" is_visible="true" lpeversion="0"></inkscape:path-effect>
	<inkscape:path-effect  effect="spiro" id="path-effect3346" is_visible="true" lpeversion="0"></inkscape:path-effect>
	<inkscape:path-effect  effect="spiro" id="path-effect3392-8" is_visible="true" lpeversion="0"></inkscape:path-effect>
</defs>
<sodipodi:namedview  bordercolor="#666666" borderopacity="1.0" fit-margin-bottom="0" fit-margin-left="0" fit-margin-right="0" fit-margin-top="0" id="base" inkscape:current-layer="layer1" inkscape:cx="148.40044" inkscape:cy="109.10202" inkscape:document-rotation="0" inkscape:document-units="px" inkscape:guide-bbox="true" inkscape:object-nodes="true" inkscape:pageopacity="0.0" inkscape:pageshadow="2" inkscape:snap-smooth-nodes="true" inkscape:window-height="1004" inkscape:window-maximized="1" inkscape:window-width="1920" inkscape:window-x="0" inkscape:window-y="42" inkscape:zoom="0.7071068" pagecolor="#ffffff" showgrid="false" showguides="false" units="px">
	<inkscape:grid  id="grid3336" originx="-399.13435" originy="-510.42818" type="xygrid"></inkscape:grid>
	<sodipodi:guide  id="guide3375" orientation="0,1" position="-117.13437,-25.564321"></sodipodi:guide>
	<sodipodi:guide  id="guide3377" orientation="0,1" position="-114.13437,-23.564321"></sodipodi:guide>
	<sodipodi:guide  id="guide3380" orientation="0,1" position="-121.13437,-27.564321"></sodipodi:guide>
	<sodipodi:guide  id="guide3382" orientation="0,1" position="-114.13437,-22.564321"></sodipodi:guide>
	<sodipodi:guide  id="guide3384" orientation="0,1" position="-114.13437,-21.564321"></sodipodi:guide>
	<sodipodi:guide  id="guide3416" orientation="-2,0.5" position="-115.13437,-25.564311"></sodipodi:guide>
	<sodipodi:guide  id="guide3420" orientation="-2,0.5" position="-115.13437,-25.564311"></sodipodi:guide>
	<sodipodi:guide  id="guide4180" orientation="0.24382204,-0.96981999" position="206.80442,220.41193"></sodipodi:guide>
	<sodipodi:guide  id="guide4182" orientation="1,0" position="86.804424,280.52227"></sodipodi:guide>
	<sodipodi:guide  id="guide4186" orientation="1,0" position="206.80442,250.52231"></sodipodi:guide>
	<sodipodi:guide  id="guide4188" orientation="-0.24382199,0.96982" position="206.80442,190.30156"></sodipodi:guide>
</sodipodi:namedview>
<g>
	<path class="st0" d="M170.2,240.2c0.5-6.8,0.9-13,1.6-19.2c0.2-2-0.4-2.9-2.2-3.7c-10-4-19.1-9.6-26.6-17.7
		c-15.3-16.6-15.5-38.1-0.5-55c7.6-8.6,17-14.6,27.6-18.5c29.8-11,59.4-10.4,88.3,3.4c7.5,3.6,14.2,8.6,19.8,14.8
		c15,16.6,15,38.2,0,54.8c-9,10-20.3,16.2-32.8,20.3c-17.5,5.8-35.3,6.8-53.3,4.1c-1.4-0.2-2.4,0-3.5,1c-5.3,4.6-10.6,9.2-15.9,13.7
		C172,238.8,171.3,239.3,170.2,240.2z M204.3,203c0.5-0.5,1-0.9,1.4-1.3c14.4-14.6,28.7-29.1,43.1-43.7c1.1-1.1,1.4-1.7,0.1-2.9
		c-1.9-1.7-3.7-3.5-5.3-5.5c-1.4-1.7-2.2-1.3-3.6,0.1c-11.2,11.5-22.6,22.9-33.8,34.4c-1.7,1.8-2.5,1.5-4-0.1
		c-6.4-6.6-12.9-13-19.2-19.5c-1.2-1.2-1.9-1.4-3,0c-1.7,2.1-3.7,4-5.6,5.9c-0.9,0.9-1.2,1.5-0.1,2.5c9.6,9.6,19.2,19.3,28.8,28.9
		C203.5,202.3,203.9,202.6,204.3,203z"/>
	<path class="st0" d="M340,321c-6.4-5.5-12.3-10.5-18.1-15.6c-1.3-1.1-2.4-1.5-4.2-1.3c-25.1,3.6-49.2,0.7-71.5-12.7
		c-10.5-6.3-19.2-14.7-23.4-26.9c-4.1-11.6-2.3-22.6,4-32.9c0.7-1.1,1.5-1.5,2.7-1.7c14.9-2.5,29-7.3,41.6-16.2
		c5-3.5,9.5-7.5,13.3-12.3c0.7-0.9,1.5-1.6,2.8-1.7c22.5-2,44,1,64.1,12.3c8.8,5,16.5,11.5,21.8,20.5c9.4,15.8,7,33.9-6.4,48.1
		c-7.4,7.9-16.4,13.3-26.2,17.3c-1.7,0.7-2.4,1.5-2.2,3.4C339.1,307.7,339.5,314,340,321z M328.5,231.1c-0.6-0.7-0.8-1.1-1.2-1.5
		c-2-2.1-4.1-4.1-6-6.3c-1.1-1.2-1.6-0.9-2.6,0.1c-5.5,5.8-11.2,11.4-16.6,17.3c-1.9,2.1-2.9,1.7-4.6-0.1
		c-5.2-5.6-10.7-11-15.9-16.5c-1.4-1.5-2.4-1.9-3.8-0.1c-1.5,1.8-3.2,3.6-5,5.1c-1.6,1.4-1.2,2.2,0.1,3.5
		c5.7,5.7,11.2,11.6,16.9,17.3c1.3,1.3,1.4,2,0,3.3c-5.8,5.8-11.5,11.9-17.3,17.7c-1.1,1.1-1.2,1.8,0,2.9c1.9,1.8,3.8,3.6,5.5,5.7
		c1.3,1.5,2,1.2,3.2-0.1c5.6-5.9,11.4-11.7,17-17.6c1.2-1.2,1.9-1.3,3.1,0c4,4.2,8,8.4,12.1,12.5c2.2,2.2,4.2,6.3,6.7,6.1
		c2.4-0.2,4.4-4.1,6.8-6.2c1.4-1.3,1.2-2.1-0.1-3.4c-5.7-5.8-11.4-11.7-17.1-17.5c-1.2-1.2-1.3-1.9,0-3.1
		c5.8-5.8,11.4-11.7,17.1-17.5C327.3,232,327.9,231.6,328.5,231.1z"/>
	<path class="st1" d="M204.3,203c-0.5-0.4-0.9-0.8-1.2-1.1c-9.6-9.6-19.2-19.3-28.8-28.9c-1.1-1.1-0.8-1.7,0.1-2.5
		c1.9-1.9,3.9-3.8,5.6-5.9c1.2-1.4,1.8-1.2,3,0c6.4,6.5,12.9,12.9,19.2,19.5c1.5,1.6,2.3,1.9,4,0.1c11.2-11.5,22.5-22.9,33.8-34.4
		c1.4-1.4,2.2-1.8,3.6-0.1c1.6,2,3.4,3.8,5.3,5.5c1.3,1.2,1,1.8-0.1,2.9c-14.4,14.5-28.7,29.1-43.1,43.7
		C205.3,202.2,204.8,202.6,204.3,203z"/>
	<path class="st1" d="M328.5,231.1c-0.6,0.5-1.2,0.9-1.7,1.4c-5.7,5.8-11.4,11.8-17.1,17.5c-1.3,1.3-1.1,1.9,0,3.1
		c5.8,5.8,11.4,11.7,17.1,17.5c1.2,1.3,1.5,2.1,0.1,3.4c-2.3,2.1-4.3,6-6.8,6.2c-2.5,0.2-4.5-3.9-6.7-6.1
		c-4.1-4.1-8.1-8.3-12.1-12.5c-1.2-1.3-1.9-1.2-3.1,0c-5.6,5.9-11.4,11.7-17,17.6c-1.2,1.3-1.9,1.6-3.2,0.1c-1.7-2-3.6-3.9-5.5-5.7
		c-1.2-1.1-1.1-1.8,0-2.9c5.8-5.9,11.5-11.9,17.3-17.7c1.3-1.3,1.2-2,0-3.3c-5.7-5.7-11.2-11.6-16.9-17.3c-1.3-1.3-1.7-2.1-0.1-3.5
		c1.8-1.5,3.4-3.3,5-5.1c1.5-1.8,2.4-1.4,3.8,0.1c5.2,5.6,10.7,10.9,15.9,16.5c1.7,1.8,2.6,2.2,4.6,0.1c5.4-5.9,11.1-11.5,16.6-17.3
		c1-1,1.5-1.3,2.6-0.1c1.9,2.2,4,4.2,6,6.3C327.7,230,327.9,230.4,328.5,231.1z"/>
</g>
</svg>
